<?xml version="1.0" encoding="utf-8"?>
<!-- Generator: Adobe Illustrator 16.0.0, SVG Export Plug-In . SVG Version: 6.00 Build 0)  -->
<!DOCTYPE svg PUBLIC "-//W3C//DTD SVG 1.1//EN" "http://www.w3.org/Graphics/SVG/1.1/DTD/svg11.dtd">
<svg version="1.1" id="圖層_1" xmlns="http://www.w3.org/2000/svg" xmlns:xlink="http://www.w3.org/1999/xlink" x="0px" y="0px"
	 width="276.773px" height="109.113px" viewBox="0 0 276.773 109.113" enable-background="new 0 0 276.773 109.113"
	 xml:space="preserve">
<g>
	<path fill-rule="evenodd" clip-rule="evenodd" fill="#FFFFFF" d="M65.629,1.001c0.095,1.573,0.241,2.861,0.241,4.149
		c0.006,23.489,0.188,46.981-0.162,70.466c-0.08,5.356-1.285,10.97-3.248,15.963c-3.433,8.727-11.059,12.694-19.916,13.845
		c-5.236,0.679-10.713,0.811-15.93,0.092c-14.526-2-23.175-10.775-23.574-25.854c-0.684-25.8-0.197-51.631-0.185-77.448
		c0-0.293,0.239-0.585,0.505-1.192c5.107,0,10.342,0,16.301,0c0,2.447,0,4.727,0,7.004c0.001,21.324-0.002,42.647,0.007,63.971
		c0.001,2.165-0.005,4.334,0.118,6.494c0.549,9.695,5.484,14.535,14.734,14.516c8.865-0.018,14.047-4.872,14.213-14.435
		C49.046,60.585,48.891,42.59,48.92,24.6c0.013-7.783,0.002-15.565,0.002-23.599C54.878,1.001,60.106,1.001,65.629,1.001z"/>
	<path fill-rule="evenodd" clip-rule="evenodd" fill="#FFFFFF" d="M94.608,103.638c-4.828,0-9.426,0-14.434,0
		c0-34.148,0-68.175,0-102.565c5.261,0,10.146,0,15.477,0c0,10.819,0,21.574,0,33.885c5.407-7.75,11.709-10.729,19.789-10.283
		c9.248,0.51,15.83,4.685,18.739,13.822c5.501,17.273,5.56,34.808-0.112,52.021c-3.906,11.859-13.686,17.238-25.901,15.252
		c-5.771-0.939-9.866-4.392-12.986-10.411C94.95,98.679,94.788,101.035,94.608,103.638z M121.468,64.287
		c0-5.84-1.175-12.418-2.643-18.836c-1.432-6.264-5.045-8.24-11.472-7.743c-5.507,0.427-9.06,3.29-10.507,9.638
		c-2.695,11.809-2.81,23.757-0.127,35.589c1.639,7.225,5.417,10.237,11.566,10.16c5.986-0.075,9.839-3.338,11.212-10.591
		C120.573,76.827,121.468,70.127,121.468,64.287z"/>
	<path fill-rule="evenodd" clip-rule="evenodd" fill="#FFFFFF" d="M234.878,103.904c-5.54,0-10.324,0-15.517,0
		c-0.149-1.635-0.397-3.08-0.398-4.525c-0.024-22.485,0.067-44.973-0.097-67.457c-0.014-1.951-0.001-5.147-0.001-5.147
		s12.096,0.148,15.59,0.148c0,2.527,0.005,4.56,0.005,7.731c6.078-6.94,13.068-10.238,21.83-9.793
		c10.243,0.521,17.063,5.908,17.324,16.213c0.526,20.773,0.156,41.569,0.156,62.711c-5.217,0-10.119,0-15.556,0
		c-0.105-1.995-0.296-3.938-0.296-5.882c-0.01-14.991,0.021-29.981,0.027-44.972c0-1.498-0.045-2.998-0.121-4.494
		c-0.352-6.843-2.475-9.717-7.686-10.445c-6.816-0.954-12.54,2.171-14.087,8.222c-0.854,3.339-1.101,6.905-1.126,10.374
		C234.813,72.212,234.878,87.838,234.878,103.904z"/>
	<path fill-rule="evenodd" clip-rule="evenodd" fill="#FFFFFF" d="M204.505,103.725c-4.898,0-9.354,0-14.248,0
		c-0.224-2.219-0.433-4.296-0.707-7.025c-1.145,1.029-2.035,1.778-2.866,2.588c-6.567,6.4-14.603,7.809-23.165,6.15
		c-7.3-1.415-13.097-7.307-13.626-16.027c-0.727-11.955,0.038-53.213,0.038-62.273c5.384,0,10.271,0,15.965,0
		c0,1.618,0,3.369,0,5.121c0.008,16.162-0.025,32.326,0.039,48.488c0.035,8.914,2.83,12.184,10.155,12.219
		c8.181,0.041,12.73-4.21,12.804-12.529c0.137-15.495,0.029-30.992,0.024-46.488c-0.001-2.137,0-4.273,0-6.814
		c5.427,0,10.312,0,15.587,0C204.505,52.446,204.505,77.824,204.505,103.725z"/>
</g>
</svg>
