<?xml version="1.0" encoding="utf-8"?>
<!-- Generator: Adobe Illustrator 16.0.0, SVG Export Plug-In . SVG Version: 6.00 Build 0)  -->
<!DOCTYPE svg PUBLIC "-//W3C//DTD SVG 1.1//EN" "http://www.w3.org/Graphics/SVG/1.1/DTD/svg11.dtd">
<svg version="1.1" xmlns="http://www.w3.org/2000/svg" xmlns:xlink="http://www.w3.org/1999/xlink" x="0px" y="0px"
	 width="389.833px" height="117px" viewBox="0 0 389.833 117" enable-background="new 0 0 389.833 117" xml:space="preserve">
<g id="圖層_2" display="none">
</g>
<g id="圖層_1">
	<rect x="-29" y="-5" fill="#FFFFFF" width="1024" height="126"/>
	<g>
		<rect x="1" y="5" fill="#999999" width="114" height="109"/>
		<rect y="3" fill="#4D0000" width="114" height="110"/>
	</g>
	<g>
		<g>
			<path fill="#FFFFFF" d="M34.232,27.091v18.164c0,3.015-0.558,5.257-1.672,6.726c-1.419,1.85-3.838,2.774-7.258,2.774
				s-5.839-0.925-7.258-2.774c-1.115-1.469-1.672-3.711-1.672-6.726V27.091h6.384v20.026c0,2.255,0.849,3.382,2.546,3.382
				c1.697,0,2.546-1.127,2.546-3.382V27.091H34.232z"/>
			<path fill="#FFFFFF" d="M38.678,54.223V27.091h6.156v8.816c0.867-1.849,2.411-2.774,4.631-2.774c2.347,0,3.98,1.026,4.899,3.078
				c0.74,1.647,1.109,4.282,1.109,7.904c0,3.75-0.545,6.485-1.634,8.208c-1.014,1.622-2.584,2.432-4.712,2.432
				c-2.306,0-3.788-1.013-4.446-3.04h-0.076v2.508H38.678z M44.72,44.077c0,1.748,0.063,2.977,0.19,3.686
				c0.304,1.672,0.975,2.508,2.014,2.508c1.039,0,1.723-0.658,2.052-1.976c0.228-0.861,0.342-2.356,0.342-4.484
				c0-2.204-0.114-3.698-0.342-4.484c-0.329-1.14-1.001-1.71-2.014-1.71c-0.938,0-1.571,0.621-1.9,1.862
				C44.834,40.341,44.72,41.873,44.72,44.077z"/>
			<path fill="#FFFFFF" d="M75.804,33.665v20.558h-5.928v-2.432H69.8c-0.938,1.976-2.584,2.964-4.94,2.964
				c-3.572,0-5.358-1.9-5.358-5.7v-15.39h6.156v14.022c0,1.571,0.595,2.356,1.786,2.356c1.469,0,2.204-0.975,2.204-2.926V33.665
				H75.804z"/>
			<path fill="#FFFFFF" d="M80.326,54.223V33.665h5.928v2.432h0.076c0.937-1.976,2.584-2.964,4.94-2.964
				c3.572,0,5.358,1.9,5.358,5.7v15.39h-6.156V40.201c0-1.57-0.596-2.356-1.786-2.356c-1.469,0-2.204,0.976-2.204,2.926v13.452
				H80.326z"/>
		</g>
		<g>
			<path fill="#FFFFFF" d="M15.84,78.342h6.156v0.95c0,2.407,0.925,3.61,2.774,3.61c1.925,0,2.888-1.076,2.888-3.23
				c0-1.545-1.014-2.761-3.04-3.648c-3.471-1.52-5.333-2.381-5.586-2.584c-2.027-1.444-3.04-3.61-3.04-6.498
				c0-2.381,0.659-4.256,1.976-5.624c1.52-1.57,3.825-2.356,6.916-2.356c5.776,0,8.664,2.47,8.664,7.41v0.646h-6.156
				c0-2.533-0.823-3.8-2.47-3.8c-1.698,0-2.546,0.976-2.546,2.926c0,1.495,1.013,2.698,3.04,3.61
				c3.546,1.571,5.408,2.432,5.586,2.584c2.026,1.394,3.04,3.458,3.04,6.194c0,5.751-3.091,8.626-9.272,8.626
				c-5.954,0-8.93-2.356-8.93-7.068V78.342z"/>
			<path fill="#FFFFFF" d="M37.689,81.332V70.324h-2.546v-4.256h2.546v-6.08h6.156v6.08h2.85v4.256h-2.85V80.73
				c0,0.712,0.146,1.208,0.437,1.487c0.291,0.28,0.804,0.419,1.539,0.419c0.228,0,0.519,0,0.874,0v4.032
				c-1.166,0.149-2.343,0.224-3.534,0.224c-2.204,0-3.648-0.33-4.332-0.991C38.069,85.191,37.689,83.667,37.689,81.332z"/>
			<path fill="#FFFFFF" d="M56.613,87.158c-3.445,0-5.802-1.026-7.068-3.078c-0.938-1.52-1.406-4.079-1.406-7.676
				c0-3.496,0.519-6.08,1.558-7.752c1.317-2.077,3.623-3.116,6.916-3.116c3.445,0,5.801,1.026,7.068,3.078
				c0.937,1.52,1.406,4.079,1.406,7.676c0,3.496-0.52,6.08-1.558,7.752C62.212,86.12,59.906,87.158,56.613,87.158z M58.931,76.366
				c0-2.153-0.051-3.509-0.152-4.066c-0.279-1.824-0.988-2.736-2.128-2.736c-0.912,0-1.533,0.494-1.862,1.482
				c-0.329,0.988-0.494,2.749-0.494,5.282s0.165,4.3,0.494,5.301c0.329,1.001,0.95,1.501,1.862,1.501
				c1.14,0,1.849-0.912,2.128-2.736C58.88,79.837,58.931,78.494,58.931,76.366z"/>
			<path fill="#FFFFFF" d="M67.823,86.626V66.068h5.928v2.888h0.076c0.988-2.28,2.635-3.42,4.94-3.42
				c0.405,0,0.735,0.025,0.988,0.076v5.776c-0.532-0.101-1.102-0.152-1.71-0.152c-2.711,0-4.066,1.242-4.066,3.724v11.666H67.823z"
				/>
			<path fill="#FFFFFF" d="M97.273,77.354H86.899v1.254c0,1.672,0.15,2.863,0.452,3.572c0.327,0.785,0.917,1.178,1.771,1.178
				c0.754,0,1.294-0.291,1.621-0.874c0.327-0.583,0.527-1.545,0.603-2.888h5.7c-0.101,5.042-2.755,7.562-7.962,7.562
				c-3.487,0-5.838-1.165-7.051-3.496c-0.86-1.596-1.289-4.281-1.289-8.056c0-3.217,0.557-5.624,1.672-7.22
				c1.342-1.9,3.572-2.85,6.688-2.85c3.496,0,5.814,1.089,6.954,3.268C96.868,70.375,97.273,73.225,97.273,77.354z M86.899,73.782
				h4.446c0-1.292-0.076-2.216-0.228-2.774c-0.304-1.114-0.925-1.672-1.862-1.672c-1.039,0-1.736,0.52-2.09,1.558
				C86.988,71.477,86.899,72.439,86.899,73.782z"/>
		</g>
	</g>
	<g>
		<path fill="#4D0000" d="M148.317,46.545v1.944c-2.256-0.144-4.92-0.24-8.929-0.24v1.368c4.128,0,5.809-0.024,7.369-0.096
			c-0.144,0.24-0.24,0.936-0.24,1.512v4.32c0,0.552,0.096,1.248,0.24,1.512c-0.48-0.048-1.032-0.096-1.608-0.096
			c1.032,0.696,2.112,1.512,3.192,2.52l-1.56,1.152c-0.384-0.456-0.744-0.864-1.128-1.224l-1.272,0.024v1.536
			c2.064,0,4.128-0.096,4.825-0.264v1.896c-0.744-0.096-3.168-0.168-4.825-0.168v2.568c0,0.96-0.312,1.224-3.24,1.872
			c-0.024-0.816-0.24-1.368-0.768-2.136c1.848,0.168,2.112-0.048,2.112-0.6v-1.704h-9.193c-2.232,0-4.417,0.048-5.232,0.144v-1.872
			c0.84,0.168,3,0.264,5.232,0.264h9.193v-1.488l-5.665,0.12c-2.304,0.048-5.28,0.312-7.177,0.672
			c-0.072-0.696-0.264-1.344-0.576-1.992c1.008,0.096,1.656,0.096,8.424-0.048v-1.296h-4.368c-1.032,0-2.088,0.048-2.928,0.12
			c0.168-0.264,0.264-0.96,0.264-1.512v-4.32c0-0.576-0.096-1.272-0.264-1.512c1.56,0.072,3.264,0.096,7.296,0.096V48.25
			c-4.056,0-6.744,0.072-9.024,0.24v-1.944c2.304,0.168,4.968,0.24,9.024,0.24c-0.024-1.056-0.096-1.512-0.336-2.376
			c0.84,0.096,1.776,0.12,2.616,0.072c0.288-0.024,0.336,0.24,0.024,0.384c-0.336,0.144-0.408,0.384-0.408,1.104v0.816
			C143.396,46.786,146.061,46.689,148.317,46.545z M137.492,51.13h-5.232v1.416h5.232V51.13z M137.492,53.89h-5.232v1.44h5.232
			V53.89z M134.396,65.651c-0.336-1.008-0.72-1.68-1.488-2.52l2.136-0.696c0.48,0.84,1.104,1.729,1.704,2.544L134.396,65.651z
			 M139.388,52.546h5.304V51.13h-5.304V52.546z M139.388,55.33h5.304v-1.44h-5.304V55.33z M139.388,58.019l4.729-0.096
			c-0.384-0.288-0.792-0.552-1.224-0.792l0.816-0.384h-4.32V58.019z"/>
		<path fill="#4D0000" d="M160.7,57.371h4.561c2.904,0,6.289-0.096,7.465-0.192l-0.432,6.649c-0.12,1.704-0.624,2.376-3.601,2.928
			c-0.12-0.552-0.384-1.056-0.984-1.8c2.544,0,2.832-0.408,2.928-1.92l0.288-4.56h-6.792v0.864c2.4,0,3.792-0.024,5.112-0.072
			c-0.048,0.384-0.072,0.96-0.072,1.536s0.024,1.176,0.072,1.56c-0.84-0.048-1.416-0.072-2.184-0.096
			c0.912,0.528,1.56,0.984,2.328,1.632l-1.416,0.744c-0.144-0.216-0.312-0.432-0.528-0.648l-5.953,0.576
			c-3.096,0.288-4.392,0.456-4.944,0.696c-0.072-0.648-0.24-1.104-0.696-1.848c0.864,0.048,4.392,0.024,6.625-0.096v-1.056h-2.208
			c-1.104,0-1.8,0.024-2.832,0.096c0.048-0.384,0.072-1.008,0.072-1.584c0-0.384,0-0.792-0.024-1.104
			c-0.312,0.168-0.648,0.36-0.984,0.552c-0.312-0.456-0.432-0.672-1.08-1.2c1.632-0.72,3.096-1.68,3.888-2.472
			c-0.864,0-1.608,0.024-2.352,0.072c0.072-0.456,0.12-1.176,0.12-1.848c0-0.672-0.048-1.344-0.12-1.8
			c1.536,0.048,3.24,0.024,5.904,0.024v-3.696h-7.393c0,9.481-0.528,12.865-1.896,16.226c-0.504-0.504-1.128-0.84-1.824-1.008
			c1.272-2.184,1.944-5.161,2.064-9.385c0.096-3.48,0-6.024-0.216-9.625c0.936,0.12,1.776,0.144,9.097,0.144
			c7.321,0,8.353-0.048,9.169-0.144c-0.048,0.432-0.072,1.176-0.072,1.968c0,0.768,0.024,1.512,0.072,1.92
			c-0.744-0.072-1.224-0.096-1.776-0.096c0.216,0.288,0.456,0.528,0.672,0.696c0.288,0.216,0.216,0.408-0.144,0.312
			c-0.456-0.12-2.4,0.288-3.792,0.816c1.848,0.216,3.601,0.48,5.473,0.816l-0.504,1.368c-0.144-0.048-0.288-0.072-0.432-0.12
			c-0.048,0.432-0.072,1.032-0.072,1.608c0,0.672,0.048,1.368,0.12,1.824c-1.344-0.072-2.952-0.096-4.824-0.096h-4.92
			C161.348,56.818,161.012,57.106,160.7,57.371z M170.061,47.025h-14.593v1.032h14.593V47.025z M156.74,50.362l0.576-0.936
			c1.104,0.192,2.232,0.432,3.672,0.864l-0.72,0.864c0.648-0.12,1.464-0.36,1.944-0.6c0.048,0.504,0.168,0.816,0.432,1.2
			c-2.952,0.72-4.032,0.744-6.073,1.032c-0.192-0.672-0.336-0.768-0.72-1.224c1.728-0.072,3.264-0.216,4.128-0.336
			C159.188,50.842,158.107,50.53,156.74,50.362z M158.06,59.291c1.152,0.024,2.616,0.048,4.417,0.048v-0.864h-3.192
			C158.9,58.738,158.492,59.026,158.06,59.291z M161.348,54.13h-2.665v1.296h2.665V54.13z M162.476,60.323h-3.504v0.96h3.504V60.323
			z M165.524,54.13h-2.64v1.296h2.64V54.13z M164.132,61.283h3.48v-0.96h-3.48V61.283z M165.716,62.747l0.6-0.48h-2.184v0.984
			l2.184-0.12C166.148,63.011,165.932,62.891,165.716,62.747z M164.444,53.002c2.76,0,4.488-0.024,6-0.048
			c-1.632-0.408-3.433-0.696-5.569-0.864l0.12-1.128c0.552,0.048,1.104,0.096,1.632,0.144c-0.192-0.312-0.408-0.576-0.816-0.912
			c1.392-0.408,2.136-0.624,3.096-0.888h-4.464V53.002z M169.701,54.13h-2.64v1.296h2.64V54.13z"/>
		<path fill="#4D0000" d="M185.828,60.443v1.704c-0.936-0.072-2.4-0.096-4.081-0.096c0.024,1.776,0.096,3.24,0.192,4.2h-2.04
			c0.12-0.96,0.216-2.424,0.24-4.2c-1.752,0-3.409,0.024-4.345,0.096v-1.704c0.936,0.072,2.592,0.12,4.345,0.12v-1.752
			c-2.041,0-2.353,0.024-3.192,0.096c0.072-0.24,0.12-0.888,0.12-1.393v-5.136c0-0.528-0.072-1.176-0.12-1.392
			c0.84,0.072,1.152,0.096,3.192,0.096v-1.776c-1.584,0-3.409,0.072-4.201,0.144v-1.704c0.816,0.072,2.616,0.144,4.201,0.144
			c0-1.416-0.12-2.424-0.24-2.88c0.72,0.096,1.296,0.096,1.944,0.048c0.408-0.024,0.456,0.192,0.12,0.408
			c-0.144,0.096-0.216,0.264-0.216,1.008v1.416c1.44-0.024,2.952-0.096,3.648-0.144v1.704c-0.696-0.072-2.208-0.12-3.648-0.144
			v1.776c2.064,0,2.376-0.024,3.24-0.096c-0.048,0.264-0.096,0.864-0.096,1.392v5.136c0,0.504,0.048,1.152,0.096,1.393
			c-0.816-0.072-1.176-0.096-3.24-0.096v1.752C183.428,60.563,184.892,60.515,185.828,60.443z M180.14,52.57h-1.561v1.632h1.561
			V52.57z M180.14,55.642h-1.561v1.704h1.561V55.642z M181.748,54.202h1.632V52.57h-1.632V54.202z M181.748,57.346h1.632v-1.704
			h-1.632V57.346z M192.188,61.067c0,1.8,0.072,3.936,0.192,5.04h-2.04c0.12-1.104,0.192-3.24,0.192-5.04h-2.544v5.184h-1.872
			c0.144-1.32,0.216-2.424,0.216-3.864V54.61c0-1.873-0.024-2.833-0.072-3.336c1.008,0.12,1.849,0.144,4.272,0.144v-1.896
			c-2.16,0-3.768,0.072-4.729,0.168v-1.8c0.888,0.096,2.544,0.168,4.729,0.168c0-1.608-0.096-2.76-0.24-3.384
			c0.624,0.072,1.56,0.096,2.04,0.072c0.408-0.024,0.504,0.192,0.144,0.432c-0.192,0.12-0.288,0.408-0.288,0.744v2.136
			c0.768,0,1.44,0,2.04-0.024c-0.24-0.624-0.672-1.392-1.176-1.992l2.016-0.864c0.312,0.672,0.672,1.32,1.152,1.992l-1.824,0.864
			c1.176-0.024,2.112-0.072,2.904-0.144v1.8c-1.416-0.12-2.712-0.168-5.112-0.168v1.896c2.424,0,3.313-0.024,4.344-0.144
			c-0.024,0.552-0.048,1.464-0.048,3.336v9.192c0,1.848-0.048,2.064-2.688,2.497c0.072-0.96-0.072-1.584-0.504-2.064
			c1.2,0.072,1.488-0.144,1.488-0.696v-2.472H192.188z M190.532,55.45v-2.448h-2.544v2.448H190.532z M190.532,59.506v-2.592h-2.544
			v2.592H190.532z M194.781,55.45v-2.448h-2.592v2.448H194.781z M194.781,59.506v-2.592h-2.592v2.592H194.781z"/>
		<path fill="#4D0000" d="M209.204,60.035c-1.152,2.136-3.648,4.272-7.129,5.977c-0.528-0.816-1.104-1.32-2.04-1.848
			c3.072-0.912,4.848-1.968,6.745-4.081c1.32-1.44,2.232-3.792,2.496-7.249c-3.552,0.024-6.265,0.096-8.281,0.216v-2.304
			c2.064,0.144,4.776,0.216,8.377,0.24c0.144-2.976,0.12-4.776-0.024-6.145c0.912,0.12,1.944,0.192,2.736,0.144
			c0.384-0.024,0.432,0.12,0.096,0.36c-0.288,0.216-0.384,0.696-0.432,1.416c-0.096,1.584-0.192,3.097-0.288,4.225
			c3.864,0,6.721-0.072,8.857-0.24v2.304c-2.16-0.144-5.064-0.216-8.977-0.216c0.648,2.88,2.088,5.544,4.201,7.609
			c1.464,1.44,3.624,2.568,5.616,2.856c-0.96,0.672-1.56,1.488-2.016,2.568c-2.136-1.056-4.464-3.024-5.688-4.705
			c-1.176-1.584-1.896-3.288-2.544-5.616C210.524,57.418,209.996,58.594,209.204,60.035z"/>
		<path fill="#4D0000" d="M235.652,64.763c0,1.224-0.816,1.848-3.553,1.992c-0.024-0.744-0.24-1.368-0.912-2.185
			c2.256,0.336,2.592,0.192,2.592-0.36v-1.848c-4.176,0-7.393,0.048-9.673,0.216v-1.896c2.304,0.168,5.521,0.24,9.673,0.24v-0.456
			l2.928-1.944h-3.912c-1.824,0-3.336,0.024-4.656,0.072v-1.608c1.08,0.072,2.496,0.096,6,0.096c3.408,0,5.16-0.048,6.145-0.144
			v1.536c-0.648,0.024-1.392,0.312-1.944,0.696l-2.592,1.752c4.081,0,7.129-0.096,9.385-0.24v1.896
			c-2.28-0.168-5.353-0.216-9.48-0.216V64.763z M229.58,48.753c0.72,0,1.296-0.048,1.824-0.144v1.584
			c-0.504-0.096-1.104-0.144-1.824-0.144h-1.584l0.024,1.44h1.608c0.72,0,1.296-0.048,1.824-0.144v1.584
			c-0.504-0.072-1.104-0.144-1.824-0.144h-1.584l0.024,1.92h13.057l0.072-1.872h-1.536c-0.72,0-1.32,0.072-1.824,0.144v-1.584
			c0.528,0.096,1.104,0.144,1.824,0.144h1.608l0.072-1.417h-1.752c-0.72,0-1.32,0.072-1.824,0.144v-1.584
			c0.528,0.096,1.104,0.144,1.824,0.144h1.8l0.096-1.824h-1.776c-0.552,0-1.296,0.024-2.136,0.072v-1.632
			c0.816,0.072,1.752,0.096,2.784,0.096c1.008,0,2.28-0.024,3.096-0.096c-0.12,0.576-0.24,1.368-0.288,2.136l-0.36,7.104
			c0.792-0.024,1.464-0.072,2.016-0.12v3.96h-1.896v-2.424h-16.826v2.28h-1.776v-3.816c0.576,0.048,1.224,0.096,2.016,0.12
			l-0.192-6.648c0-0.84-0.072-1.368-0.288-2.016c1.2,0.096,3.36-0.432,4.608-1.224c0.288,0.624,0.696,1.272,0.984,1.632
			c0.24,0.288,0.192,0.432-0.144,0.384c-0.24-0.024-0.672,0.024-1.176,0.12c-0.6,0.12-1.417,0.216-2.16,0.288l0.024,1.536H229.58z
			 M231.932,51.106l1.056-1.008c0.552,0.36,1.08,0.696,1.584,1.056c0.432-0.432,0.864-0.888,1.296-1.392
			c0.48,0.456,0.864,0.792,1.32,1.104c0.24,0.168,0.216,0.24-0.12,0.312c-0.216,0.048-0.48,0.168-1.296,0.864
			c0.648,0.48,1.248,0.984,1.824,1.488l-1.224,1.081c-0.48-0.625-1.032-1.2-1.632-1.705c-0.528,0.456-1.176,1.032-2.017,1.776
			c-0.408-0.36-0.864-0.672-1.392-0.936c0.816-0.552,1.561-1.104,2.256-1.704C233.084,51.706,232.532,51.394,231.932,51.106z
			 M231.764,46.089l1.08-0.984c0.624,0.408,1.224,0.816,1.776,1.248c0.48-0.504,0.912-1.032,1.296-1.584
			c0.48,0.504,0.864,0.816,1.32,1.128c0.168,0.12,0.168,0.264-0.12,0.312c-0.216,0.048-0.456,0.168-1.392,1.008
			c0.6,0.48,1.176,0.984,1.752,1.536l-1.152,1.032c-0.48-0.576-1.032-1.128-1.608-1.632c-0.504,0.48-1.104,1.056-1.872,1.776
			c-0.36-0.48-0.696-0.744-1.272-0.984c0.744-0.504,1.44-1.056,2.088-1.632C233.06,46.833,232.412,46.449,231.764,46.089z"/>
		<path fill="#4D0000" d="M250.963,55.066c-0.624-0.336-1.464-0.624-2.256-0.72c2.208-2.304,3.433-5.185,4.008-8.617
			c0.792,0.408,1.992,0.792,2.497,0.888c0.552,0.096,0.6,0.288,0.12,0.504c-0.24,0.12-0.456,0.528-1.392,2.52h4.873v-2.136
			c0-0.576-0.048-2.232-0.144-2.832c0.84,0.096,1.848,0.144,2.592,0.144c0.408,0,0.48,0.192,0.168,0.384
			c-0.336,0.192-0.456,0.336-0.456,0.744v3.672c3.504-0.024,5.232-0.072,7.297-0.168v2.208c-2.688-0.144-4.657-0.168-7.297-0.168
			v4.417c2.568-0.024,4.128-0.096,5.665-0.24v2.28c-1.536-0.168-3.096-0.24-5.665-0.264v5.136c3.792-0.024,5.785-0.096,8.089-0.24
			v2.4c-2.64-0.192-4.896-0.264-9.913-0.264c-5.041,0-7.393,0.096-10.033,0.288v-2.4c2.592,0.168,4.896,0.216,9.697,0.216v-5.136
			c-2.832,0.024-4.512,0.096-6.121,0.264v-2.28c1.632,0.144,3.289,0.216,6.121,0.24V51.49h-5.785
			C252.452,52.618,251.684,53.962,250.963,55.066z"/>
		<path fill="#4D0000" d="M275.204,65.531h-2.208c0.168-1.488,0.192-2.208,0.192-3.528V51.274c0-0.744-0.048-1.584-0.168-2.184
			c0.648,0.072,1.536,0.12,2.497,0.168c0.312-1.608,0.48-3.121,0.48-4.296c0.768,0.192,1.824,0.336,2.592,0.36
			c0.384,0.024,0.432,0.24,0.048,0.6c-0.36,0.336-0.6,0.888-1.224,3.36c1.776,0,3.12-0.048,4.32-0.192
			c-0.12,0.648-0.168,1.488-0.168,2.184v10.561c0,1.344,0.048,2.088,0.192,3.504h-2.232v-2.136h-4.32V65.531z M279.524,50.938h-4.32
			v4.224h4.32V50.938z M279.524,56.794h-4.32v4.776h4.32V56.794z M290.037,49.018c0.912,0,2.112-0.096,2.712-0.192
			c-0.12,0.696-0.168,1.536-0.192,2.376l-0.504,12.073c-0.072,1.704-1.128,2.832-4.632,3.072c-0.096-0.864-0.552-1.992-1.32-2.664
			c3.241,0.36,3.913-0.096,3.96-1.488l0.456-11.329h-5.088c-0.552,1.56-1.08,2.616-1.8,3.913c-0.576-0.6-1.2-1.032-1.776-1.2
			c1.368-1.8,2.496-4.705,3.168-8.593c0.672,0.24,1.752,0.432,2.497,0.408c0.456-0.024,0.504,0.24,0.024,0.6
			c-0.336,0.264-0.936,1.488-1.488,3.024H290.037z M286.004,59.747c-0.408-1.488-1.248-3.408-2.016-4.488l1.944-0.84
			c0.528,1.296,1.392,3,2.185,4.225L286.004,59.747z"/>
		<path fill="#4D0000" d="M296.923,61.427c-0.312-0.768-0.696-1.464-1.176-2.04c1.584-2.232,2.76-5.281,3.504-8.257
			c-1.224,0.024-2.16,0.096-2.88,0.192v-2.16c0.744,0.144,1.68,0.192,2.928,0.216c0-2.64-0.048-3.72-0.24-4.824
			c0.744,0.144,1.776,0.192,2.16,0.144c0.432-0.048,0.552,0.192,0.12,0.6c-0.192,0.192-0.24,0.264-0.24,0.552v3.528
			c0.984-0.024,1.752-0.096,2.352-0.216v2.16c-0.6-0.096-1.368-0.144-2.352-0.168v10.801c0,1.272,0.072,2.953,0.216,4.513h-2.232
			c0.144-1.56,0.216-3.24,0.216-4.513v-6.576C298.627,57.634,297.931,59.579,296.923,61.427z M302.78,58.307
			c-0.408-1.128-0.888-2.232-1.488-3.457l1.464-0.744c0.72,1.248,1.272,2.353,1.752,3.36L302.78,58.307z M311.685,55.33
			c0.696,0.36,1.632,0.672,2.208,0.744c0.288,0.048,0.24,0.336-0.048,0.48c-0.12,0.048-0.36,0.576-1.2,2.592
			c-0.216,0.504-0.864,1.632-1.44,2.52c1.344,1.008,3.696,1.729,6.145,1.992c-0.528,0.744-0.984,1.8-1.176,2.544
			c-2.976-0.696-4.417-1.488-6.145-3.12c-1.656,1.536-4.225,2.736-6.889,3.48c-0.12-0.696-0.528-1.488-1.08-1.968
			c2.833-0.456,4.849-1.32,6.697-2.929c-1.08-1.44-1.92-3.336-2.472-5.088l1.776-0.6c0.6,2.017,1.152,3.36,1.92,4.393
			C310.772,59.123,311.42,57.083,311.685,55.33z M309.26,52.114c-0.216,0.072-1.128,1.008-4.128,4.249
			c-0.336-0.432-0.768-0.864-1.368-1.296c1.44-1.056,3.072-3.072,3.696-4.488c0.696,0.552,1.344,0.936,1.896,1.152
			C309.596,51.826,309.62,51.97,309.26,52.114z M310.556,49.642c-3.048,0-5.04,0.096-6.313,0.24v-2.184
			c1.344,0.144,3.216,0.216,6.361,0.216c2.424,0,4.488-0.072,6.289-0.216v2.16C314.901,49.714,313.053,49.642,310.556,49.642z
			 M309.38,47.673c-0.168-0.816-0.456-1.68-0.84-2.616l2.353-0.648c0.168,0.744,0.48,1.632,0.912,2.568L309.38,47.673z
			 M315.669,56.05c-1.128-1.272-2.88-2.928-4.584-4.057l1.272-1.224c1.752,1.056,3.313,2.232,4.729,3.384L315.669,56.05z"/>
		<path fill="#4D0000" d="M323.323,65.147v1.248h-2.04c0.12-1.32,0.192-2.544,0.192-3.96V47.793c0-0.96-0.024-1.488-0.12-2.136
			c0.912,0.096,2.52,0.12,9.36,0.12c6.841,0,8.425-0.024,9.337-0.12c-0.096,0.648-0.12,1.224-0.12,2.136v14.473
			c0,1.392,0.048,2.641,0.12,3.96h-1.992v-1.08H323.323z M338.061,63.587V47.385h-14.737v16.202H338.061z M325.244,62.531
			c-0.312-0.552-0.648-0.864-1.536-1.44c2.4-1.056,3.84-1.896,5.016-3.024c-1.224,0-2.04,0-2.904,0.048
			c0.048-0.648,0.072-1.368,0.072-2.088c0-0.72-0.024-1.416-0.072-2.041c1.296,0.072,2.376,0.096,4.896,0.096
			c2.568,0,3.577-0.024,4.849-0.096c-0.048,0.648-0.048,1.368-0.048,2.088s0.024,1.44,0.048,2.064
			c-1.224-0.048-2.088-0.072-4.32-0.072v0.912c0.552,0.192,1.056,0.384,1.512,0.576c0.792-0.528,1.296-0.864,2.064-1.392
			c0.648,0.432,0.96,0.624,1.536,0.864c0.408,0.168,0.384,0.432-0.072,0.48c-0.648,0.072-1.032,0.168-2.041,0.696
			c0.816,0.36,1.632,0.768,2.641,1.32l-1.128,1.464c-1.584-1.224-2.952-1.992-4.512-2.664v1.032c0,0.648,0.048,1.32,0.12,1.896
			h-1.92c0.072-0.48,0.12-1.176,0.12-1.896v-2.136C328.46,60.418,327.284,61.235,325.244,62.531z M325.22,50.554v-1.728
			c1.416,0.096,2.352,0.144,4.56,0.168c-0.024-0.648-0.072-1.032-0.12-1.296c0.864,0.096,1.464,0.12,2.16,0.096
			c0.432-0.024,0.432,0.192,0.096,0.432c-0.192,0.144-0.288,0.384-0.312,0.768c2.304,0,3.336-0.048,4.657-0.168v1.728
			c-1.368-0.12-2.376-0.168-4.657-0.168v1.392c3,0,3.913-0.024,5.688-0.144v1.656c-1.968-0.12-2.832-0.144-6.528-0.144
			c-3.648,0-4.608,0.024-6.505,0.144v-1.656c1.776,0.12,2.665,0.144,5.521,0.144v-1.392
			C327.548,50.386,326.563,50.434,325.22,50.554z M327.524,56.794h6.313v-1.392h-6.313V56.794z"/>
		<path fill="#4D0000" d="M345.643,47.529v-1.824c2.112,0.144,5.088,0.192,9.001,0.192c3.912,0,6.913-0.048,9.001-0.192v1.824
			c-1.944-0.12-4.705-0.192-8.257-0.192v1.104c5.232,0,7.584-0.048,9.241-0.144v4.249h-1.848v-2.712h-7.393v2.017
			c0,1.272,0.024,2.112,0.072,3.24h-1.896c0.072-1.176,0.096-2.016,0.096-3.24v-2.017h-7.225v2.736h-1.873v-4.272
			c1.632,0.096,4.008,0.144,9.097,0.144v-1.104C350.228,47.361,347.563,47.41,345.643,47.529z M355.1,63.563
			c0,0.672,0.216,0.792,1.56,0.888c1.056,0.072,3.313,0.072,4.729,0c1.776-0.096,2.088-0.408,2.208-2.353
			c0.552,0.6,1.392,0.888,2.232,0.912c-0.648,2.592-1.032,2.76-4.393,2.928c-1.344,0.072-3.6,0.048-4.824-0.024
			c-3-0.168-3.336-0.528-3.336-1.944v-1.224c-4.056,0-5.473,0.024-7.009,0.12c0.048-0.36,0.072-1.056,0.072-1.68v-3.912
			c0-0.624-0.024-1.32-0.072-1.68c1.632,0.096,3.289,0.12,7.993,0.12c4.705,0,6.361-0.024,7.969-0.12
			c-0.048,0.288-0.072,1.056-0.072,1.68v3.912c0,0.624,0.024,1.296,0.072,1.68c-1.488-0.096-3.168-0.12-7.128-0.12V63.563z
			 M349.964,54.586c-0.96,0-2.041,0.024-2.736,0.096v-1.488c0.72,0.048,1.8,0.072,2.736,0.072c1.08,0,1.992-0.024,2.736-0.072v1.488
			C351.98,54.61,351.02,54.586,349.964,54.586z M350.107,52.258c-0.912,0-1.992,0.024-2.616,0.096v-1.488
			c0.648,0.048,1.704,0.072,2.616,0.072c1.008,0,1.873-0.024,2.592-0.072v1.488C351.98,52.282,351.116,52.258,350.107,52.258z
			 M353.276,57.106h-5.185v1.488h5.185V57.106z M353.276,59.891h-5.185v1.536h5.185V59.891z M355.1,58.594h5.28v-1.488h-5.28V58.594
			z M355.1,61.427h5.28v-1.536h-5.28V61.427z M359.037,52.258c-0.912,0-1.992,0.024-2.616,0.096v-1.488
			c0.648,0.048,1.704,0.072,2.616,0.072c1.008,0,1.872-0.024,2.592-0.072v1.488C360.909,52.282,360.044,52.258,359.037,52.258z
			 M359.181,54.586c-0.96,0-2.041,0.024-2.736,0.096v-1.488c0.72,0.048,1.8,0.072,2.736,0.072c1.08,0,1.992-0.024,2.736-0.072v1.488
			C361.197,54.61,360.236,54.586,359.181,54.586z"/>
		<path fill="#4D0000" d="M376.988,44.841l2.496-0.504c0.216,0.84,0.384,1.536,0.696,2.496c3.84-0.024,6.553-0.096,8.761-0.24v1.992
			c-2.472-0.168-5.568-0.24-10.177-0.24s-7.705,0.072-10.177,0.24v-1.992c2.305,0.144,5.089,0.24,9.121,0.24
			C377.54,46.089,377.3,45.417,376.988,44.841z M380.036,51.61c0.432-0.912,0.888-1.992,1.104-2.76
			c0.744,0.288,1.464,0.504,2.232,0.648c0.192,0.048,0.216,0.12,0.048,0.24c-0.432,0.312-0.792,0.672-1.632,1.872
			c3.792-0.024,4.801-0.096,5.617-0.192c-0.072,0.6-0.096,2.04-0.096,3.768v8.857c0,1.896-0.408,2.208-3.864,2.496
			c-0.024-0.648-0.216-1.488-0.744-2.448c2.232,0.264,2.544,0.168,2.544-0.744V53.29h-12.721v13.177h-2.328
			c0.24-1.872,0.336-3.408,0.336-5.041v-6.241c0-1.584-0.024-3.216-0.096-3.768c0.744,0.096,1.632,0.168,4.464,0.192
			c-0.168-0.552-0.576-1.368-0.984-1.992l2.088-0.888c0.192,0.48,0.768,1.44,1.128,1.944l-1.944,0.936H380.036z M373.795,58.907
			l-1.104-1.344c1.176-0.864,2.688-2.472,3.336-3.672c0.576,0.48,1.08,0.816,1.656,1.008c0.192,0.072,0.216,0.192,0.048,0.288
			c-0.576,0.336-1.08,0.792-2.592,2.328c0.888,0.072,1.896,0.096,3.601,0.096c1.752,0,2.688-0.024,3.6-0.096
			c-0.048,0.696-0.072,1.752-0.072,2.809s0.024,2.208,0.072,2.904c-0.888-0.048-1.848-0.072-3.6-0.072c-1.752,0-2.809,0-3.696,0.048
			c0.072-0.72,0.096-1.824,0.096-2.88c0-0.984-0.024-2.016-0.096-2.712C374.684,57.97,374.276,58.402,373.795,58.907z
			 M376.82,61.643h3.744v-2.544h-3.744V61.643z M383.564,58.499c-1.296-1.344-2.64-2.304-3.937-2.928l1.2-1.368
			c1.392,0.864,2.76,1.824,3.96,2.88L383.564,58.499z"/>
	</g>
</g>
<g id="圖層_3">
</g>
</svg>
